<svg width="250" height="62" viewBox="0 0 250 62" fill="none" xmlns="http://www.w3.org/2000/svg">
<path d="M145.701 25.9588C145.511 25.777 145.48 25.5327 145.638 25.4307C147.397 24.3109 148.643 22.8275 149.164 21.0765C149.756 19.0416 149.503 16.6281 148.478 13.8041C147.453 10.9807 145.891 8.53535 143.785 6.46087C141.663 4.38639 139.179 2.79316 136.276 1.67285C133.373 0.560872 130.226 0.000976562 126.819 0.000976562H105.356L122.638 37.065H135.621L131.117 27.3869H134.469C134.69 27.3869 134.942 27.4973 135.132 27.6786L145.378 37.065H158.731L145.701 25.9588ZM122.409 8.78744H129.397C131.393 8.78744 133.034 9.23691 134.311 10.1281C135.605 11.027 136.52 12.2499 137.08 13.8036C137.64 15.3421 137.609 16.5723 136.97 17.4713C136.339 18.363 135.022 18.8202 133.026 18.8202H127.079L122.409 8.78744Z" fill="#222221"/>
<path d="M219.143 0.000488281L227.702 18.3234L205.553 0.000488281H192.507L209.796 37.0645H222.827L214.403 19.0021L236.441 37.0729L249.448 37.0645L232.166 0.000488281H219.143Z" fill="#222221"/>
<path d="M172.819 0.000520547H185.866L195.386 20.4297C198.659 27.5521 197.429 31.7484 194.739 34.2172C190.645 37.9797 183.192 37.7349 183.192 37.7349C177.583 37.7349 172.172 36.5911 167.629 33.5464C163.086 30.5177 159.536 25.8953 157.005 20.4135L147.508 0H160.57L169.774 19.8531C171.242 23.0161 172.756 25.2641 174.531 26.5896C176.29 27.9146 178.025 28.5771 179.965 28.5771C181.906 28.5771 183.191 27.9146 183.704 26.5896C184.217 25.2646 183.483 23.0161 182.016 19.8531L172.819 0.000520547Z" fill="#222221"/>
<path d="M48.6432 23.8213C38.6573 21.6442 31.1719 12.7312 31.1719 2.09108C31.1719 1.389 31.2031 0.694726 31.2667 0.00878875H18.2917C18.2521 0.70306 18.2286 1.389 18.2286 2.09108C18.2286 6.53952 19.0568 10.7911 20.5714 14.7036L13.7328 0.000976562H0L17.2896 37.0729H31.0141L22.5583 18.939C28.5135 29.7531 40.0135 37.0729 53.2255 37.0729H54.8266L48.6427 23.8135V23.8213H48.6432Z" fill="#222221"/>
<path d="M43.0984 0.000488281L60.3723 37.0645H73.4104L56.1286 0.000488281H43.0984Z" fill="#222221"/>
<path d="M101.743 6.46038C99.6454 4.3859 97.1371 2.79268 94.2423 1.67236C91.3397 0.560384 88.1845 0.000488281 84.7694 0.000488281H63.3069L80.5887 37.0645H93.6428L89.2256 27.5916H94.7548C98.1782 27.5916 100.923 27.0317 103.005 25.8958C105.088 24.7599 106.429 23.1744 107.036 21.1078C107.659 19.0573 107.446 16.6276 106.421 13.8036C105.395 10.9802 103.834 8.53486 101.728 6.46038M94.8574 17.4323C94.2262 18.3078 92.9251 18.7651 90.9527 18.7651H85.0683L80.4387 8.84215H87.3637C89.3355 8.84215 90.9527 9.28382 92.2225 10.1755C93.4923 11.0666 94.4074 12.2734 94.9595 13.8036C95.5199 15.3343 95.4725 16.5489 94.8574 17.4323Z" fill="#222221"/>
<path d="M28.8298 48.9359L23.6871 57.8093L18.4813 48.9359H17.4324V60.9093H18.647V51.3807L23.3558 59.3869H23.9475L28.6563 51.3255V60.9093H29.8709V48.9359H28.8298ZM39.8563 61.0119C43.4532 61.0119 46.1272 58.4328 46.1272 54.9223C46.1272 51.4203 43.4532 48.8411 39.8563 48.8411C36.2595 48.8411 33.5621 51.4364 33.5621 54.9223C33.5621 58.4088 36.2282 61.0119 39.8563 61.0119ZM39.8563 59.8838C36.9694 59.8838 34.8084 57.7776 34.8084 54.9223C34.8084 52.0671 36.9694 49.9609 39.8563 49.9609C42.7433 49.9609 44.873 52.0671 44.873 54.9223C44.873 57.7776 42.7355 59.8838 39.8563 59.8838ZM59.4022 60.9093L56.4839 56.8078C58.2188 56.2479 59.2131 54.9229 59.2131 53.0453C59.2131 50.4817 57.3756 48.9515 54.323 48.9515H49.8428V60.9171H51.1126V57.1156H54.3308C54.6699 57.1156 54.9855 57.0916 55.2928 57.0604L58.022 60.9098H59.41H59.4022V60.9093ZM54.2907 56.0348H51.1042V50.0322H54.2907C56.6808 50.0322 57.9506 51.1208 57.9506 53.0374C57.9506 54.9541 56.6808 56.0348 54.2907 56.0348ZM64.3318 59.8208V55.364H70.5235V54.2833H64.3318V50.0161H71.273V48.9276H63.0621V60.901H71.5256V59.8046H64.3318V59.8208ZM90.2589 60.9093L87.3407 56.8078C89.0839 56.2479 90.0699 54.9229 90.0699 53.0453C90.0699 50.4817 88.2318 48.9515 85.1798 48.9515H80.6996V60.9171H81.9693V57.1156H85.1876C85.5345 57.1156 85.8423 57.0916 86.1501 57.0604L88.8792 60.9098H90.2751H90.2589V60.9093ZM85.1475 56.0348H81.961V50.0322H85.1475C87.5376 50.0322 88.8074 51.1208 88.8074 53.0374C88.8074 54.9541 87.5376 56.0348 85.1475 56.0348ZM98.7459 61.0119C101.814 61.0119 103.652 59.2369 103.652 55.7901V48.9359H102.421V55.751C102.421 58.5906 101.088 59.8921 98.7381 59.8921C96.3876 59.8921 95.0782 58.5906 95.0782 55.751V48.9359H93.8079V55.7901C93.8079 59.2369 95.6693 61.0119 98.7381 61.0119M117.093 48.9359V58.6458L109.379 48.9359H108.33V60.9093H109.6V51.1994L117.306 60.9093H118.347V48.9359H117.093ZM126.4 61.0119C129.46 61.0119 130.865 59.5135 130.865 57.7463C130.865 53.3765 123.49 55.364 123.49 52.075C123.49 50.876 124.46 49.9057 126.653 49.9057C127.709 49.9057 128.908 50.2291 129.934 50.8994L130.368 49.8817C129.406 49.2192 128.009 48.825 126.653 48.825C123.608 48.825 122.243 50.3473 122.243 52.114C122.243 56.5468 129.618 54.5276 129.618 57.8088C129.618 58.9921 128.648 59.9307 126.4 59.9307C124.822 59.9307 123.3 59.3078 122.448 58.4713L121.951 59.4416C122.85 60.3723 124.601 60.9953 126.4 60.9953M139.667 57.5729C140.164 57.5729 140.598 57.1625 140.598 56.6343C140.598 56.1062 140.164 55.7036 139.667 55.7036C139.178 55.7036 138.768 56.1062 138.768 56.6343C138.768 57.1625 139.178 57.5729 139.667 57.5729ZM161.027 48.9359L155.877 57.8093L150.671 48.9359H149.63V60.9093H150.837V51.3807L155.545 59.3869H156.145L160.846 51.3255V60.9093H162.06V48.9359H161.027ZM172.062 61.0119C175.651 61.0119 178.333 58.4328 178.333 54.9223C178.333 51.4203 175.651 48.8411 172.062 48.8411C168.465 48.8411 165.768 51.4364 165.768 54.9223C165.768 58.4088 168.433 61.0119 172.062 61.0119ZM172.062 59.8838C169.175 59.8838 167.014 57.7776 167.014 54.9223C167.014 52.0671 169.176 49.9609 172.062 49.9609C174.949 49.9609 177.079 52.0671 177.079 54.9223C177.078 57.7776 174.941 59.8838 172.062 59.8838ZM191.592 60.9093L188.674 56.8078C190.417 56.2479 191.41 54.9229 191.41 53.0453C191.41 50.4817 189.565 48.9515 186.512 48.9515H182.04V60.9171H183.302V57.1156H186.52C186.867 57.1156 187.175 57.0916 187.482 57.0604L190.219 60.9098H191.607H191.592V60.9093ZM186.481 56.0348H183.294V50.0322H186.481C188.871 50.0322 190.141 51.1208 190.141 53.0374C190.141 54.9541 188.87 56.0348 186.481 56.0348ZM196.521 59.8208V55.364H202.721V54.2833H196.521V50.0161H203.47V48.9276H195.252V60.901H203.723V59.8046H196.521V59.8208ZM212.896 60.9093H220.863V59.8208H214.158V48.9359H212.896V60.9093ZM223.829 60.9093H225.099V48.9359H223.829V60.9093ZM238.066 50.0317V48.9354H229.847V60.9088H231.117V55.8291H237.317V54.7328H231.117V50.0317H238.066ZM242.806 59.8208V55.364H248.998V54.2833H242.806V50.0161H249.747V48.9276H241.537V60.901H250V59.8046H242.806V59.8208Z" fill="#222221"/>
</svg>
