<?xml version="1.0" encoding="UTF-8"?>
<svg id="Calque_1" data-name="Calque 1" xmlns="http://www.w3.org/2000/svg" viewBox="0 0 778 603">
  <defs>
    <style>
      .cls-1 {
        fill: #f1e5e5;
      }
    </style>
  </defs>
  <g id="export_wanarun_bordeaux-lac" data-name="export wanarun bordeaux-lac">
    <path class="cls-1" d="M769.15,3l5.85,122.86-49.72,11.08-8.76,29.53,10.96,25.31c-35.48,44.31-115.05,115.64-156.45,154.52-16.4,48.8-54.59,145.77-75.3,193.04,0,0-31.43,29.01-31.43,29.01l-75.3,31.65-62.14-4.75-70.91-61.19-54.1-24.26-78.96-88.6-14.62-44.31,11.7-1.59c-14.4-32.28-42.94-103.13-50.81-137.12-10.22-13.39-57.66-74.58-66.16-87.28l27.05-47.19,13.89-44.83,38.01-18.45C230.1,36.94,616.65,12.86,769.15,3M769.15,0c-.06,0-.13,0-.19,0C682.64,5.59,243.89,33.61,81.88,37.44c-.43.01-.85.11-1.24.3l-38.01,18.45c-.75.36-1.31,1.02-1.56,1.81l-13.79,44.51L.4,149.42c-.57.99-.52,2.21.11,3.16,6.79,10.15,37.47,49.99,55.79,73.8,4.4,5.71,7.92,10.29,10.09,13.12,8.26,35.05,36.04,103.34,49.22,133.37l-7.74,1.05c-.88.12-1.67.63-2.14,1.38-.47.76-.58,1.68-.31,2.53l14.62,44.31c.13.39.34.75.61,1.06l78.96,88.6c.28.32.63.57,1.01.74l53.7,24.08,70.58,60.9c.49.42,1.09.67,1.73.72l62.14,4.75c.08,0,.15,0,.23,0,.4,0,.79-.08,1.16-.23l75.3-31.65c.32-.13.62-.32.87-.56l15.71-14.5,10.8-9.97,3.56-3.29c1.2-1.11,1.99-1.84,2.26-2.69,20.25-46.3,57.96-141.72,74.96-192.14,7.08-6.65,15.36-14.32,24.1-22.42,43.32-40.15,102.64-95.13,132.09-131.89.69-.87.85-2.05.41-3.07l-10.53-24.3,7.95-26.79,47.99-10.7c1.42-.32,2.41-1.61,2.34-3.07l-5.85-122.86c-.04-.8-.4-1.56-1-2.09-.55-.49-1.26-.76-2-.76h0Z"/>
  </g>
</svg>